<svg width="27" height="27" viewBox="0 0 27 27" fill="none" xmlns="http://www.w3.org/2000/svg">
<path d="M1 1L26 26" stroke="#828282" stroke-width="2" stroke-linecap="round" stroke-linejoin="round"/>
<path d="M11.4166 11.6626C10.9844 12.1522 10.7222 12.7955 10.7222 13.5C10.7222 15.034 11.9658 16.2777 13.4999 16.2777C14.2044 16.2777 14.8476 16.0155 15.3373 15.5833" stroke="#828282" stroke-width="2" stroke-linecap="round" stroke-linejoin="round"/>
<path d="M7.05812 7.33484C4.72225 8.97176 2.77631 11.3039 1 13.5C3.623 17.6541 8.33569 21.8333 13.5 21.8333C15.6526 21.8333 17.7269 21.1072 19.604 19.9594" stroke="#828282" stroke-width="2" stroke-linecap="round" stroke-linejoin="round"/>
<path d="M13.5 5.16669C19.0672 5.16669 22.8076 9.55308 26 13.5C25.5576 14.2004 25.056 14.9017 24.5028 15.5834" stroke="#828282" stroke-width="2" stroke-linecap="round" stroke-linejoin="round"/>
</svg>
